<svg xmlns="http://www.w3.org/2000/svg" version="1.1" xmlns:xlink="http://www.w3.org/1999/xlink" width="512" height="512" x="0" y="0" viewBox="0 0 512.004 512.004" style="enable-background:new 0 0 512 512" xml:space="preserve" class=""><g><path d="M480.002 0h-448c-17.673 0-32 14.327-32 32v362.667c0 17.673 14.327 32 32 32h256v-21.333h-256c-5.891 0-10.667-4.776-10.667-10.667V32c0-5.891 4.776-10.667 10.667-10.667h448c5.891 0 10.667 4.776 10.667 10.667v362.667c0 5.891-4.776 10.667-10.667 10.667h-21.333v21.333h21.333c17.673 0 32-14.327 32-32V32c0-17.673-14.327-32-32-32z" fill="#ffffff" opacity="1" data-original="#000000" class=""></path><path d="M448.002 106.667c-23.564 0-42.667-19.103-42.667-42.667 0-5.891-4.776-10.667-10.667-10.667H117.336c-5.891 0-10.667 4.776-10.667 10.667 0 23.564-19.103 42.667-42.667 42.667-5.891 0-10.667 4.776-10.667 10.667v192c0 5.891 4.776 10.667 10.667 10.667 23.564 0 42.667 19.103 42.667 42.667 0 5.891 4.776 10.667 10.667 10.667h138.667V352H127.117c-4.588-26.838-25.61-47.86-52.448-52.448V127.115c26.838-4.588 47.86-25.61 52.448-52.448h257.771c4.588 26.838 25.61 47.86 52.448 52.448v86.219h21.333v-96c0-5.892-4.776-10.667-10.667-10.667z" fill="#ffffff" opacity="1" data-original="#000000" class=""></path><path d="M373.336 224c-53.019 0-96 42.981-96 96s42.981 96 96 96c52.993-.065 95.935-43.007 96-96 0-53.019-42.981-96-96-96zm0 170.667c-41.237 0-74.667-33.429-74.667-74.667 0-41.237 33.429-74.667 74.667-74.667 41.218.047 74.62 33.449 74.667 74.667-.001 41.237-33.43 74.667-74.667 74.667z" fill="#ffffff" opacity="1" data-original="#000000" class=""></path><path d="M416.002 384v95.136l-36-28.8a10.666 10.666 0 0 0-13.333 0l-36 28.8V384h-21.333v117.333a10.664 10.664 0 0 0 2.34 6.671c3.682 4.599 10.395 5.342 14.993 1.66l46.667-37.333 46.667 37.333A10.67 10.67 0 0 0 426.67 512c5.891 0 10.667-4.776 10.667-10.667V384h-21.335zM362.669 106.667H149.336c-5.891 0-10.667 4.776-10.667 10.667V160c0 5.891 4.776 10.667 10.667 10.667h213.333c5.891 0 10.667-4.776 10.667-10.667v-42.667c0-5.891-4.776-10.666-10.667-10.666zm-10.667 42.666h-192V128h192v21.333zM128.002 202.667h21.333V224h-21.333zM170.669 202.667h21.333V224h-21.333zM128.002 245.333h128v21.333h-128zM373.336 266.667c-29.455 0-53.333 23.878-53.333 53.333s23.878 53.333 53.333 53.333c29.441-.035 53.298-23.893 53.333-53.333 0-29.455-23.878-53.333-53.333-53.333zm0 85.333c-17.673 0-32-14.327-32-32s14.327-32 32-32 32 14.327 32 32-14.327 32-32 32zM53.336 352h21.333v21.333H53.336zM437.336 53.333h21.333v21.333h-21.333zM53.336 53.333h21.333v21.333H53.336z" fill="#ffffff" opacity="1" data-original="#000000" class=""></path></g></svg>