<svg width="30" height="30" viewBox="0 0 30 30" fill="none" xmlns="http://www.w3.org/2000/svg">
<path d="M15 29.4828C15 29.4828 15 15 25.8621 15C15 15 15 0.517241 15 0.517241C15 0.517241 15 15 4.13793 15C15 15 15 29.4828 15 29.4828ZM25.8621 12.4138C25.8621 12.4138 25.8621 6.2069 30 6.2069C25.8621 6.2069 25.8621 0 25.8621 0C25.8621 0 25.8621 6.2069 21.7241 6.2069C25.8621 6.2069 25.8621 12.4138 25.8621 12.4138ZM4.13793 30C4.13793 30 4.13793 23.7931 8.27586 23.7931C4.13793 23.7931 4.13793 17.5862 4.13793 17.5862C4.13793 17.5862 4.13793 23.7931 0 23.7931C4.13793 23.7931 4.13793 30 4.13793 30Z" fill="#FFEB00"/>
</svg>
