<svg xmlns="http://www.w3.org/2000/svg" version="1.1" xmlns:xlink="http://www.w3.org/1999/xlink" width="512" height="512" x="0" y="0" viewBox="0 0 484 484.277" style="enable-background:new 0 0 512 512" xml:space="preserve" class=""><g><linearGradient id="a" x1="161.6" x2="161.6" y1="6.907" y2="471.441" gradientUnits="userSpaceOnUse"><stop stop-opacity="1" stop-color="#ffffff" offset="0"></stop><stop stop-opacity="1" stop-color="#ffffff" offset="1"></stop></linearGradient><g fill="url(#a)"><path d="M161.598 55.031c-58.778 0-106.43 47.649-106.43 106.43s47.652 106.43 106.43 106.43c58.78 0 106.433-47.649 106.433-106.43-.066-58.754-47.68-106.363-106.433-106.43zm0 196.86c-49.942 0-90.43-40.489-90.43-90.43 0-49.945 40.488-90.43 90.43-90.43 49.945 0 90.433 40.485 90.433 90.43-.058 49.918-40.511 90.375-90.433 90.43zm0 0" fill="" opacity="1"></path><path d="m300.176 124.348 2.156-39.176a8 8 0 0 0-4.383-7.582l-34.867-17.613-17.613-34.868a7.985 7.985 0 0 0-7.578-4.379l-39.18 2.157L166 1.32a8.001 8.001 0 0 0-8.809 0l-32.703 21.567-39.18-2.157a8 8 0 0 0-7.581 4.38l-17.61 34.867L25.25 77.59a8 8 0 0 0-4.383 7.582l2.156 39.176-21.562 32.71a7.995 7.995 0 0 0 0 8.805l21.562 32.711-2.156 39.176a8.004 8.004 0 0 0 4.383 7.582l34.867 17.613 17.61 34.868a7.998 7.998 0 0 0 2.878 3.144L14.613 423.785a7.991 7.991 0 0 0 1.074 9.11 8.005 8.005 0 0 0 8.926 2.113l65.418-25.969 14.461 68.883a8.002 8.002 0 0 0 6.688 6.273 8.001 8.001 0 0 0 8.187-4.133l42.238-78.617 42.227 78.617a7.995 7.995 0 0 0 8.188 4.133 8.002 8.002 0 0 0 6.687-6.273l14.461-68.883 65.422 25.965a8.009 8.009 0 0 0 8.926-2.113 8.005 8.005 0 0 0 1.074-9.11l-65.992-122.824a7.998 7.998 0 0 0 2.879-3.145l17.613-34.867 34.867-17.613a8 8 0 0 0 4.379-7.582l-2.156-39.176 21.566-32.71a8.01 8.01 0 0 0 0-8.805zm-184.528 328.84-11.91-56.727a7.997 7.997 0 0 0-4.047-5.402 7.99 7.99 0 0 0-6.734-.391l-53.879 21.383 59.414-110.582 9.145-.5 44.89 83.578zm114.598-62.52a8.012 8.012 0 0 0-6.738.387 8.007 8.007 0 0 0-4.043 5.406l-11.91 56.723-81.809-152.317 31.453 20.735a8.001 8.001 0 0 0 8.809 0l32.703-21.563 26 1.434 59.41 110.578zm55.121-198.7a8 8 0 0 0-1.312 4.844l2.015 36.598-32.547 16.442a7.986 7.986 0 0 0-3.53 3.535L233.55 285.93l-36.602-2.012a7.986 7.986 0 0 0-4.84 1.309l-30.511 20.113-30.508-20.113a7.972 7.972 0 0 0-4.84-1.309l-36.598 2.012-16.441-32.547a7.986 7.986 0 0 0-3.535-3.531L37.129 233.41l2.016-36.601a7.986 7.986 0 0 0-1.31-4.84L17.72 161.457l20.117-30.508a7.997 7.997 0 0 0 1.309-4.844l-2.016-36.593L69.676 73.07a8.014 8.014 0 0 0 3.535-3.535l16.441-32.547 36.598 2.016a7.99 7.99 0 0 0 4.844-1.309l30.504-20.113 30.511 20.117a7.99 7.99 0 0 0 4.844 1.309l36.598-2.016 16.437 32.547a7.975 7.975 0 0 0 3.535 3.535l32.547 16.442-2.015 36.593a7.99 7.99 0 0 0 1.308 4.844l20.114 30.508zm0 0" fill="" opacity="1"></path><path d="m219.324 140.84-34.926-5.074-15.62-31.649a8.001 8.001 0 0 0-7.173-4.46 8.003 8.003 0 0 0-7.175 4.46l-15.621 31.649-34.934 5.074a8.004 8.004 0 0 0-6.457 5.445 7.996 7.996 0 0 0 2.023 8.2l25.274 24.64-5.965 34.785a7.996 7.996 0 0 0 3.184 7.824 7.993 7.993 0 0 0 8.425.61l31.239-16.422 31.242 16.426a8.001 8.001 0 0 0 11.61-8.434l-5.966-34.789 25.274-24.637a7.998 7.998 0 0 0-4.434-13.644zm-35.023 29.762a8 8 0 0 0-2.301 7.082l3.938 22.957-20.618-10.84a8.015 8.015 0 0 0-7.445 0l-20.613 10.84 3.937-22.957a8.012 8.012 0 0 0-2.3-7.082l-16.68-16.258 23.047-3.348a8.003 8.003 0 0 0 6.027-4.379l10.305-20.883 10.308 20.887a8.008 8.008 0 0 0 6.024 4.375l23.05 3.348zm0 0" fill="" opacity="1"></path></g></g></svg>