<svg width="342" height="512" viewBox="0 0 342 512" fill="none" xmlns="http://www.w3.org/2000/svg">
<path d="M170.702 58.1826C108.56 58.1826 58.1797 108.559 58.1797 170.705C58.1797 232.851 108.56 283.228 170.702 283.228C232.847 283.228 283.228 232.851 283.228 170.705C283.159 108.588 232.819 58.2535 170.702 58.1826ZM170.702 266.312C117.901 266.312 75.0956 223.505 75.0956 170.705C75.0956 117.901 117.901 75.0986 170.702 75.0986C223.507 75.0986 266.312 117.901 266.312 170.705C266.251 223.481 223.482 266.254 170.702 266.312Z" fill="white"/>
<path d="M317.212 131.468L319.492 90.0493C319.582 88.4073 319.192 86.7746 318.369 85.3509C317.546 83.9272 316.326 82.7743 314.858 82.0333L277.995 63.412L259.373 26.5479C258.634 25.08 257.482 23.86 256.058 23.0376C254.635 22.2152 253.003 21.8262 251.362 21.9182L209.939 24.1987L175.355 1.3971C173.973 0.485766 172.354 0 170.699 0C169.043 0 167.424 0.485766 166.042 1.3971L131.467 24.1987L90.0439 21.9182C88.4024 21.8277 86.7701 22.2174 85.3467 23.0399C83.9232 23.8623 82.7703 25.0817 82.0289 26.549L63.4108 63.412L26.5478 82.0333C25.0797 82.7743 23.8595 83.9272 23.0365 85.3509C22.2135 86.7746 21.8234 88.4073 21.9139 90.0493L24.1933 131.468L1.39696 166.051C0.485731 167.432 0 169.05 0 170.705C0 172.36 0.485731 173.978 1.39696 175.36L24.1933 209.943L21.9139 251.362C21.8239 253.004 22.2143 254.636 23.0372 256.06C23.8602 257.483 25.0801 258.636 26.5478 259.378L63.4108 277.999L82.0289 314.863C82.7238 316.226 83.7754 317.375 85.0717 318.187L15.3019 448.047C14.4792 449.574 14.1468 451.318 14.3499 453.042C14.5531 454.765 15.2819 456.384 16.4373 457.678C17.5918 458.973 19.1162 459.881 20.8041 460.281C22.492 460.68 24.262 460.552 25.8743 459.912L95.0373 432.456L110.326 505.283C110.683 506.98 111.553 508.526 112.817 509.712C114.082 510.898 115.681 511.667 117.397 511.915C119.114 512.162 120.865 511.875 122.413 511.093C123.961 510.312 125.232 509.073 126.053 507.545L170.709 424.428L215.353 507.545C216.173 509.074 217.444 510.313 218.992 511.095C220.541 511.877 222.293 512.163 224.01 511.915C225.726 511.667 227.324 510.898 228.589 509.712C229.853 508.526 230.723 506.979 231.079 505.283L246.368 432.456L315.535 459.908C317.148 460.547 318.918 460.675 320.605 460.276C322.293 459.876 323.818 458.968 324.972 457.674C326.126 456.378 326.854 454.76 327.057 453.037C327.26 451.314 326.929 449.571 326.108 448.042L256.338 318.187C257.635 317.375 258.687 316.226 259.382 314.862L278.003 277.999L314.866 259.378C316.333 258.636 317.553 257.483 318.375 256.059C319.197 254.636 319.587 253.003 319.496 251.362L317.216 209.943L340.017 175.361C340.926 173.979 341.411 172.36 341.411 170.706C341.411 169.052 340.926 167.434 340.017 166.052L317.212 131.468ZM122.121 479.133L109.529 419.158C109.275 417.952 108.761 416.816 108.022 415.829C107.283 414.843 106.337 414.03 105.25 413.447C104.165 412.863 102.966 412.524 101.736 412.452C100.506 412.381 99.2758 412.579 98.1308 413.034L41.1674 435.641L103.983 318.728L113.651 318.2L161.111 406.562L122.121 479.133ZM243.279 413.034C242.133 412.58 240.902 412.381 239.672 412.452C238.442 412.522 237.241 412.861 236.155 413.443C235.07 414.027 234.125 414.841 233.386 415.828C232.648 416.815 232.134 417.952 231.881 419.158L219.289 479.129L132.797 318.092L166.05 340.014C167.432 340.925 169.052 341.411 170.707 341.411C172.362 341.411 173.982 340.925 175.364 340.014L209.939 317.217L237.427 318.733L300.238 435.641L243.279 413.034ZM301.556 202.959C300.556 204.473 300.069 206.269 300.168 208.08L302.299 246.773L267.889 264.157C266.277 264.971 264.969 266.281 264.156 267.894L246.772 302.3L208.075 300.173C206.265 300.073 204.471 300.558 202.958 301.557L170.7 322.821L138.446 301.557C136.933 300.557 135.139 300.072 133.329 300.173L94.6355 302.3L77.2533 267.89C76.4389 266.278 75.129 264.969 73.516 264.157L39.1068 246.773L41.2382 208.077C41.3379 206.267 40.8523 204.473 39.8532 202.96L18.5867 170.701L39.8553 138.447C40.8541 136.932 41.3393 135.137 41.2393 133.326L39.1079 94.6378L73.517 77.2545C75.1294 76.4391 76.439 75.1296 77.2544 73.5172L94.6366 39.107L133.33 41.2384C135.141 41.339 136.937 40.8537 138.451 39.8544L170.701 18.59L202.959 39.8587C204.473 40.8579 206.269 41.3432 208.08 41.2426L246.773 39.1112L264.151 73.5214C264.964 75.1355 266.274 76.4457 267.889 77.2587L302.299 94.642L300.168 133.33C300.067 135.141 300.552 136.937 301.551 138.451L322.817 170.706L301.556 202.959Z" fill="white"/>
<path d="M231.729 148.904L194.804 143.539L178.289 110.079C177.591 108.663 176.511 107.472 175.171 106.639C173.83 105.805 172.284 105.364 170.706 105.363C169.127 105.363 167.581 105.805 166.24 106.638C164.9 107.472 163.819 108.663 163.12 110.079L146.605 143.539L109.671 148.904C108.11 149.131 106.643 149.791 105.437 150.808C104.23 151.826 103.332 153.16 102.844 154.661C102.356 156.161 102.298 157.769 102.676 159.301C103.054 160.833 103.853 162.229 104.983 163.33L131.704 189.381L125.398 226.157C125.131 227.712 125.304 229.312 125.899 230.774C126.494 232.235 127.486 233.502 128.764 234.429C130.04 235.357 131.551 235.91 133.125 236.024C134.7 236.138 136.274 235.809 137.671 235.074L170.698 217.712L203.729 235.078C205.126 235.813 206.701 236.142 208.275 236.028C209.85 235.915 211.361 235.363 212.638 234.435C213.915 233.507 214.907 232.241 215.502 230.778C216.097 229.316 216.27 227.717 216.004 226.161L209.696 189.381L236.417 163.333C237.547 162.232 238.347 160.836 238.725 159.304C239.104 157.772 239.046 156.164 238.558 154.663C238.07 153.162 237.172 151.828 235.965 150.811C234.758 149.793 233.291 149.134 231.729 148.908V148.904ZM194.701 180.37C193.719 181.327 192.984 182.509 192.56 183.813C192.137 185.117 192.036 186.505 192.268 187.857L196.432 212.128L174.634 200.668C173.419 200.031 172.069 199.698 170.698 199.698C169.327 199.698 167.976 200.031 166.762 200.668L144.969 212.128L149.132 187.857C149.363 186.505 149.262 185.118 148.838 183.814C148.415 182.509 147.681 181.328 146.7 180.37L129.065 163.181L153.432 159.641C154.789 159.444 156.079 158.92 157.189 158.113C158.299 157.307 159.196 156.242 159.804 155.012L170.698 132.933L181.597 155.016C182.204 156.245 183.101 157.308 184.211 158.114C185.32 158.919 186.609 159.444 187.965 159.641L212.335 163.181L194.701 180.37Z" fill="white"/>
</svg>
