<svg xmlns="http://www.w3.org/2000/svg" width="41" height="26" viewBox="0 0 41 26" fill="none"><g clip-path="url(#clip0_1674_3193)"><g clip-path="url(#clip1_1674_3193)"><g clip-path="url(#clip2_1674_3193)"><mask id="mask0_1674_3193" style="mask-type:luminance" maskUnits="userSpaceOnUse" x="0" y="0" width="41" height="26"><path d="M40.9141 0.970703H0.914062V25.8552H40.9141V0.970703Z" fill="white"></path></mask><g mask="url(#mask0_1674_3193)"><path d="M31.7729 25.8348C36.8208 25.8348 40.9129 21.7426 40.9129 16.6947C40.9129 11.6468 36.8208 7.55469 31.7729 7.55469C26.725 7.55469 22.6328 11.6468 22.6328 16.6947C22.6328 21.7426 26.725 25.8348 31.7729 25.8348Z" fill="#02B13F"></path><path d="M31.7761 25.8552C26.0169 25.8552 22.125 21.2164 22.125 14.9068C22.125 5.90436 28.9653 0.970703 31.7761 0.970703C28.0415 9.22623 28.5132 19.0739 31.7761 25.8552Z" fill="#02B13F"></path><path d="M10.5619 25.8348C15.6098 25.8348 19.7019 21.7426 19.7019 16.6947C19.7019 11.6468 15.6098 7.55469 10.5619 7.55469C5.51402 7.55469 1.42188 11.6468 1.42188 16.6947C1.42188 21.7426 5.51402 25.8348 10.5619 25.8348Z" fill="#02B13F"></path><path d="M10.5652 25.8552C4.80595 25.8552 0.914062 21.1967 0.914062 14.8871C0.914062 5.90436 7.75435 0.970703 10.5652 0.970703C7.1057 7.37856 7.16467 19.0739 10.5652 25.8552Z" fill="#02B13F"></path></g></g></g></g><defs><clipPath id="clip0_1674_3193"><rect width="41" height="26" fill="white"></rect></clipPath><clipPath id="clip1_1674_3193"><rect width="41" height="26" fill="white"></rect></clipPath><clipPath id="clip2_1674_3193"><rect width="41" height="26" fill="white"></rect></clipPath></defs></svg>