<svg width="42" height="27" viewBox="0 0 42 27" fill="none" xmlns="http://www.w3.org/2000/svg">
<g clip-path="url(#clip0_2004_9530)">
<g clip-path="url(#clip1_2004_9530)">
<g clip-path="url(#clip2_2004_9530)">
<mask id="mask0_2004_9530" style="mask-type:luminance" maskUnits="userSpaceOnUse" x="0" y="0" width="42" height="27">
<path d="M41.9608 0.0698242H0.976562V26.0598H41.9608V0.0698242Z" fill="white"/>
</mask>
<g mask="url(#mask0_2004_9530)">
<mask id="mask1_2004_9530" style="mask-type:luminance" maskUnits="userSpaceOnUse" x="0" y="0" width="42" height="27">
<path d="M41.9608 0.0698242H0.976562V26.0598H41.9608V0.0698242Z" fill="white"/>
</mask>
<g mask="url(#mask1_2004_9530)">
<mask id="mask2_2004_9530" style="mask-type:luminance" maskUnits="userSpaceOnUse" x="0" y="0" width="42" height="27">
<path d="M41.9608 0.0698242H0.976562V26.0598H41.9608V0.0698242Z" fill="white"/>
</mask>
<g mask="url(#mask2_2004_9530)">
<mask id="mask3_2004_9530" style="mask-type:luminance" maskUnits="userSpaceOnUse" x="1" y="1" width="41" height="25">
<path d="M41.8753 1.04004H1.89062V25.915H41.8753V1.04004Z" fill="white"/>
</mask>
<g mask="url(#mask3_2004_9530)">
<path d="M32.7381 25.8947C37.7841 25.8947 41.8746 21.804 41.8746 16.7581C41.8746 11.7121 37.7841 7.62158 32.7381 7.62158C27.6922 7.62158 23.6016 11.7121 23.6016 16.7581C23.6016 21.804 27.6922 25.8947 32.7381 25.8947Z" fill="#274829"/>
<path d="M32.7411 25.915C26.9842 25.915 23.0938 21.2779 23.0938 14.9708C23.0938 5.9718 29.9314 1.04004 32.7411 1.04004C29.008 9.29239 29.4795 19.1363 32.7411 25.915Z" fill="#274829"/>
<path d="M11.5349 25.8947C16.5809 25.8947 20.6714 21.804 20.6714 16.7581C20.6714 11.7121 16.5809 7.62158 11.5349 7.62158C6.489 7.62158 2.39844 11.7121 2.39844 16.7581C2.39844 21.804 6.489 25.8947 11.5349 25.8947Z" fill="#274829"/>
<path d="M11.5381 25.915C5.78102 25.915 1.89062 21.2583 1.89062 14.9511C1.89062 5.9718 8.72828 1.04004 11.5381 1.04004C8.07988 7.44543 8.13883 19.1363 11.5381 25.915Z" fill="#274829"/>
</g>
</g>
</g>
</g>
</g>
</g>
</g>
<defs>
<clipPath id="clip0_2004_9530">
<rect width="40.99" height="25.99" fill="white" transform="translate(0.976562 0.0698242)"/>
</clipPath>
<clipPath id="clip1_2004_9530">
<rect width="40.99" height="25.99" fill="white" transform="translate(0.976562 0.0698242)"/>
</clipPath>
<clipPath id="clip2_2004_9530">
<rect width="40.9842" height="25.99" fill="white" transform="translate(0.976562 0.0698242)"/>
</clipPath>
</defs>
</svg>
