<svg width="116" height="33" viewBox="0 0 116 33" fill="none" xmlns="http://www.w3.org/2000/svg">
<g clip-path="url(#clip0_2004_9557)">
<g clip-path="url(#clip1_2004_9557)">
<mask id="mask0_2004_9557" style="mask-type:luminance" maskUnits="userSpaceOnUse" x="1" y="7" width="18" height="18">
<path d="M18.0675 7.68066H1.1875V24.5607H18.0675V7.68066Z" fill="white"/>
</mask>
<g mask="url(#mask0_2004_9557)">
<mask id="mask1_2004_9557" style="mask-type:luminance" maskUnits="userSpaceOnUse" x="1" y="7" width="18" height="18">
<path d="M18.0675 7.68066H1.1875V24.5607H18.0675V7.68066Z" fill="white"/>
</mask>
<g mask="url(#mask1_2004_9557)">
<mask id="mask2_2004_9557" style="mask-type:luminance" maskUnits="userSpaceOnUse" x="1" y="7" width="18" height="18">
<path d="M18.0675 7.68066H1.1875V24.5607H18.0675V7.68066Z" fill="white"/>
</mask>
<g mask="url(#mask2_2004_9557)">
<path d="M13.1188 23.2987C13.7352 23.6701 14.5386 23.4758 14.9133 22.8648C15.0904 22.5759 15.1465 22.2297 15.0695 21.9004L14.1378 17.915L17.2453 15.2287C17.7888 14.7587 17.8452 13.941 17.371 13.4022C17.1484 13.1493 16.8354 12.9919 16.4979 12.9633L12.4164 12.6178L10.8237 8.8678C10.5438 8.20888 9.77799 7.89955 9.11314 8.17692C8.79864 8.30813 8.54843 8.55611 8.41605 8.8678L6.82332 12.6178L2.74192 12.9633C2.02318 13.0242 1.49029 13.651 1.55169 14.3633C1.58052 14.6978 1.73929 15.008 1.99453 15.2287L5.10196 17.915L4.17027 21.9004C4.00745 22.5968 4.44514 23.2923 5.14787 23.4536C5.48021 23.53 5.82946 23.4744 6.121 23.2987L9.61987 21.1915L13.1188 23.2987Z" fill="#274829"/>
</g>
</g>
</g>
<mask id="mask3_2004_9557" style="mask-type:luminance" maskUnits="userSpaceOnUse" x="23" y="7" width="18" height="18">
<path d="M40.5441 7.68066H23.6641V24.5607H40.5441V7.68066Z" fill="white"/>
</mask>
<g mask="url(#mask3_2004_9557)">
<mask id="mask4_2004_9557" style="mask-type:luminance" maskUnits="userSpaceOnUse" x="23" y="7" width="18" height="18">
<path d="M40.5441 7.68066H23.6641V24.5607H40.5441V7.68066Z" fill="white"/>
</mask>
<g mask="url(#mask4_2004_9557)">
<mask id="mask5_2004_9557" style="mask-type:luminance" maskUnits="userSpaceOnUse" x="23" y="7" width="18" height="18">
<path d="M40.5441 7.68066H23.6641V24.5607H40.5441V7.68066Z" fill="white"/>
</mask>
<g mask="url(#mask5_2004_9557)">
<path d="M35.5953 23.2987C36.2118 23.6701 37.0152 23.4758 37.3898 22.8648C37.567 22.5759 37.6231 22.2297 37.5461 21.9004L36.6144 17.915L39.7218 15.2287C40.2654 14.7587 40.3218 13.941 39.8476 13.4022C39.6249 13.1493 39.3119 12.9919 38.9745 12.9633L34.893 12.6178L33.3003 8.8678C33.0204 8.20888 32.2546 7.89955 31.5897 8.17692C31.2752 8.30813 31.025 8.55611 30.8926 8.8678L29.2999 12.6178L25.2185 12.9633C24.4998 13.0242 23.9669 13.651 24.0283 14.3633C24.0571 14.6978 24.2159 15.008 24.4711 15.2287L27.5785 17.915L26.6468 21.9004C26.484 22.5968 26.9217 23.2923 27.6245 23.4536C27.9568 23.53 28.3061 23.4744 28.5976 23.2987L32.0965 21.1915L35.5953 23.2987Z" fill="#274829"/>
</g>
</g>
</g>
<mask id="mask6_2004_9557" style="mask-type:luminance" maskUnits="userSpaceOnUse" x="46" y="7" width="18" height="18">
<path d="M63.0362 7.68066H46.1562V24.5607H63.0362V7.68066Z" fill="white"/>
</mask>
<g mask="url(#mask6_2004_9557)">
<mask id="mask7_2004_9557" style="mask-type:luminance" maskUnits="userSpaceOnUse" x="46" y="7" width="18" height="18">
<path d="M63.0362 7.68066H46.1562V24.5607H63.0362V7.68066Z" fill="white"/>
</mask>
<g mask="url(#mask7_2004_9557)">
<mask id="mask8_2004_9557" style="mask-type:luminance" maskUnits="userSpaceOnUse" x="46" y="7" width="18" height="18">
<path d="M63.0362 7.68066H46.1562V24.5607H63.0362V7.68066Z" fill="white"/>
</mask>
<g mask="url(#mask8_2004_9557)">
<path d="M58.0874 23.2987C58.7039 23.6701 59.5073 23.4758 59.8819 22.8648C60.0591 22.5759 60.1152 22.2297 60.0382 21.9004L59.1065 17.915L62.2139 15.2287C62.7575 14.7587 62.8139 13.941 62.3397 13.4022C62.117 13.1493 61.804 12.9919 61.4666 12.9633L57.3851 12.6178L55.7924 8.8678C55.5125 8.20888 54.7467 7.89955 54.0818 8.17692C53.7673 8.30813 53.5171 8.55611 53.3847 8.8678L51.792 12.6178L47.7106 12.9633C46.9918 13.0242 46.459 13.651 46.5204 14.3633C46.5492 14.6978 46.708 15.008 46.9632 15.2287L50.0706 17.915L49.1389 21.9004C48.9761 22.5968 49.4138 23.2923 50.1165 23.4536C50.4489 23.53 50.7981 23.4744 51.0897 23.2987L54.5885 21.1915L58.0874 23.2987Z" fill="#274829"/>
</g>
</g>
</g>
<mask id="mask9_2004_9557" style="mask-type:luminance" maskUnits="userSpaceOnUse" x="68" y="7" width="18" height="18">
<path d="M85.5128 7.68066H68.6328V24.5607H85.5128V7.68066Z" fill="white"/>
</mask>
<g mask="url(#mask9_2004_9557)">
<mask id="mask10_2004_9557" style="mask-type:luminance" maskUnits="userSpaceOnUse" x="68" y="7" width="18" height="18">
<path d="M85.5128 7.68066H68.6328V24.5607H85.5128V7.68066Z" fill="white"/>
</mask>
<g mask="url(#mask10_2004_9557)">
<mask id="mask11_2004_9557" style="mask-type:luminance" maskUnits="userSpaceOnUse" x="68" y="7" width="18" height="18">
<path d="M85.5128 7.68066H68.6328V24.5607H85.5128V7.68066Z" fill="white"/>
</mask>
<g mask="url(#mask11_2004_9557)">
<path d="M80.5641 23.2987C81.1805 23.6701 81.984 23.4758 82.3586 22.8648C82.5357 22.5759 82.5918 22.2297 82.5148 21.9004L81.5831 17.915L84.6906 15.2287C85.2341 14.7587 85.2905 13.941 84.8164 13.4022C84.5937 13.1493 84.2807 12.9919 83.9432 12.9633L79.8618 12.6178L78.269 8.8678C77.9892 8.20888 77.2233 7.89955 76.5585 8.17692C76.244 8.30813 75.9938 8.55611 75.8614 8.8678L74.2687 12.6178L70.1873 12.9633C69.4685 13.0242 68.9356 13.651 68.997 14.3633C69.0259 14.6978 69.1846 15.008 69.4399 15.2287L72.5473 17.915L71.6156 21.9004C71.4528 22.5968 71.8905 23.2923 72.5932 23.4536C72.9255 23.53 73.2748 23.4744 73.5663 23.2987L77.0652 21.1915L80.5641 23.2987Z" fill="#274829"/>
</g>
</g>
</g>
<mask id="mask12_2004_9557" style="mask-type:luminance" maskUnits="userSpaceOnUse" x="91" y="7" width="18" height="18">
<path d="M108.005 7.68066H91.125V24.5607H108.005V7.68066Z" fill="white"/>
</mask>
<g mask="url(#mask12_2004_9557)">
<mask id="mask13_2004_9557" style="mask-type:luminance" maskUnits="userSpaceOnUse" x="91" y="7" width="18" height="18">
<path d="M108.005 7.68066H91.125V24.5607H108.005V7.68066Z" fill="white"/>
</mask>
<g mask="url(#mask13_2004_9557)">
<mask id="mask14_2004_9557" style="mask-type:luminance" maskUnits="userSpaceOnUse" x="91" y="7" width="18" height="18">
<path d="M108.005 7.68066H91.125V24.5607H108.005V7.68066Z" fill="white"/>
</mask>
<g mask="url(#mask14_2004_9557)">
<path d="M103.056 23.2987C103.672 23.6701 104.476 23.4758 104.85 22.8648C105.028 22.5759 105.084 22.2297 105.007 21.9004L104.075 17.915L107.182 15.2287C107.726 14.7587 107.782 13.941 107.308 13.4022C107.085 13.1493 106.772 12.9919 106.435 12.9633L102.354 12.6178L100.761 8.8678C100.481 8.20888 99.7155 7.89955 99.0507 8.17692C98.7362 8.30813 98.486 8.55611 98.3536 8.8678L96.7608 12.6178L92.6794 12.9633C91.9607 13.0242 91.4278 13.651 91.4892 14.3633C91.518 14.6978 91.6768 15.008 91.932 15.2287L95.0395 17.915L94.1078 21.9004C93.945 22.5968 94.3827 23.2923 95.0854 23.4536C95.4177 23.53 95.767 23.4744 96.0585 23.2987L99.5574 21.1915L103.056 23.2987Z" fill="#274829"/>
</g>
</g>
</g>
</g>
</g>
<defs>
<clipPath id="clip0_2004_9557">
<rect width="115" height="32" fill="white" transform="translate(0.984375 0.549805)"/>
</clipPath>
<clipPath id="clip1_2004_9557">
<rect width="115" height="32" fill="white" transform="translate(0.984375 0.549805)"/>
</clipPath>
</defs>
</svg>
