<svg xmlns="http://www.w3.org/2000/svg" width="115" height="32" viewBox="0 0 115 32" fill="none"><g clip-path="url(#clip0_1674_3204)"><g clip-path="url(#clip1_1674_3204)"><g clip-path="url(#clip2_1674_3204)"><path d="M12.1344 22.7489C12.7508 23.1203 13.5542 22.926 13.9289 22.315C14.106 22.0261 14.1621 21.6799 14.0851 21.3506L13.1534 17.3652L16.2609 14.6789C16.8044 14.2089 16.8608 13.3912 16.3866 12.8524C16.164 12.5995 15.851 12.4421 15.5135 12.4135L11.432 12.068L9.83932 8.31799C9.55946 7.65907 8.79361 7.34975 8.12876 7.62712C7.81426 7.75833 7.56405 8.0063 7.43167 8.31799L5.83894 12.068L1.75754 12.4135C1.0388 12.4744 0.505918 13.1012 0.567315 13.8135C0.596141 14.148 0.754917 14.4582 1.01015 14.6789L4.11758 17.3652L3.18589 21.3506C3.02307 22.047 3.46076 22.7425 4.16349 22.9038C4.49583 22.9802 4.84509 22.9246 5.13662 22.7489L8.6355 20.6417L12.1344 22.7489Z" fill="#02B13F"></path></g></g></g><g clip-path="url(#clip3_1674_3204)"><g clip-path="url(#clip4_1674_3204)"><g clip-path="url(#clip5_1674_3204)"><path d="M34.6109 22.7489C35.2274 23.1203 36.0308 22.926 36.4054 22.315C36.5826 22.0261 36.6387 21.6799 36.5617 21.3506L35.63 17.3652L38.7374 14.6789C39.281 14.2089 39.3374 13.3912 38.8632 12.8524C38.6405 12.5995 38.3275 12.4421 37.9901 12.4135L33.9086 12.068L32.3159 8.31799C32.036 7.65907 31.2702 7.34975 30.6053 7.62712C30.2908 7.75833 30.0406 8.0063 29.9082 8.31799L28.3155 12.068L24.2341 12.4135C23.5154 12.4744 22.9825 13.1012 23.0439 13.8135C23.0727 14.148 23.2315 14.4582 23.4867 14.6789L26.5941 17.3652L25.6624 21.3506C25.4996 22.047 25.9373 22.7425 26.6401 22.9038C26.9724 22.9802 27.3217 22.9246 27.6132 22.7489L31.1121 20.6417L34.6109 22.7489Z" fill="#02B13F"></path></g></g></g><g clip-path="url(#clip6_1674_3204)"><g clip-path="url(#clip7_1674_3204)"><g clip-path="url(#clip8_1674_3204)"><path d="M57.1031 22.7489C57.7196 23.1203 58.523 22.926 58.8976 22.315C59.0748 22.0261 59.1309 21.6799 59.0539 21.3506L58.1222 17.3652L61.2296 14.6789C61.7732 14.2089 61.8296 13.3912 61.3554 12.8524C61.1327 12.5995 60.8197 12.4421 60.4823 12.4135L56.4008 12.068L54.8081 8.31799C54.5282 7.65907 53.7624 7.34975 53.0975 7.62712C52.783 7.75833 52.5328 8.0063 52.4004 8.31799L50.8077 12.068L46.7263 12.4135C46.0075 12.4744 45.4747 13.1012 45.5361 13.8135C45.5649 14.148 45.7237 14.4582 45.9789 14.6789L49.0863 17.3652L48.1546 21.3506C47.9918 22.047 48.4295 22.7425 49.1322 22.9038C49.4646 22.9802 49.8138 22.9246 50.1054 22.7489L53.6042 20.6417L57.1031 22.7489Z" fill="#02B13F"></path></g></g></g><g clip-path="url(#clip9_1674_3204)"><g clip-path="url(#clip10_1674_3204)"><g clip-path="url(#clip11_1674_3204)"><path d="M79.5797 22.7489C80.1961 23.1203 80.9996 22.926 81.3742 22.315C81.5513 22.0261 81.6074 21.6799 81.5304 21.3506L80.5987 17.3652L83.7062 14.6789C84.2497 14.2089 84.3061 13.3912 83.832 12.8524C83.6093 12.5995 83.2963 12.4421 82.9588 12.4135L78.8774 12.068L77.2846 8.31799C77.0048 7.65907 76.2389 7.34975 75.5741 7.62712C75.2596 7.75833 75.0094 8.0063 74.877 8.31799L73.2843 12.068L69.2029 12.4135C68.4841 12.4744 67.9512 13.1012 68.0126 13.8135C68.0415 14.148 68.2002 14.4582 68.4555 14.6789L71.5629 17.3652L70.6312 21.3506C70.4684 22.047 70.9061 22.7425 71.6088 22.9038C71.9411 22.9802 72.2904 22.9246 72.5819 22.7489L76.0808 20.6417L79.5797 22.7489Z" fill="#02B13F"></path></g></g></g><g clip-path="url(#clip12_1674_3204)"><g clip-path="url(#clip13_1674_3204)"><g clip-path="url(#clip14_1674_3204)"><path d="M102.072 22.7489C102.688 23.1203 103.492 22.926 103.866 22.315C104.044 22.0261 104.1 21.6799 104.023 21.3506L103.091 17.3652L106.198 14.6789C106.742 14.2089 106.798 13.3912 106.324 12.8524C106.101 12.5995 105.788 12.4421 105.451 12.4135L101.37 12.068L99.7768 8.31799C99.497 7.65907 98.7311 7.34975 98.0663 7.62712C97.7518 7.75833 97.5016 8.0063 97.3692 8.31799L95.7764 12.068L91.695 12.4135C90.9763 12.4744 90.4434 13.1012 90.5048 13.8135C90.5336 14.148 90.6924 14.4582 90.9476 14.6789L94.0551 17.3652L93.1234 21.3506C92.9606 22.047 93.3983 22.7425 94.101 22.9038C94.4333 22.9802 94.7826 22.9246 95.0741 22.7489L98.573 20.6417L102.072 22.7489Z" fill="#02B13F"></path></g></g></g><defs><clipPath id="clip0_1674_3204"><rect width="16.88" height="16.88" fill="white" transform="translate(0.203125 7.13086)"></rect></clipPath><clipPath id="clip1_1674_3204"><rect width="16.88" height="16.88" fill="white" transform="translate(0.203125 7.13086)"></rect></clipPath><clipPath id="clip2_1674_3204"><rect width="16.88" height="16.88" fill="white" transform="translate(0.203125 7.13086)"></rect></clipPath><clipPath id="clip3_1674_3204"><rect width="16.88" height="16.88" fill="white" transform="translate(22.6797 7.13086)"></rect></clipPath><clipPath id="clip4_1674_3204"><rect width="16.88" height="16.88" fill="white" transform="translate(22.6797 7.13086)"></rect></clipPath><clipPath id="clip5_1674_3204"><rect width="16.88" height="16.88" fill="white" transform="translate(22.6797 7.13086)"></rect></clipPath><clipPath id="clip6_1674_3204"><rect width="16.88" height="16.88" fill="white" transform="translate(45.1719 7.13086)"></rect></clipPath><clipPath id="clip7_1674_3204"><rect width="16.88" height="16.88" fill="white" transform="translate(45.1719 7.13086)"></rect></clipPath><clipPath id="clip8_1674_3204"><rect width="16.88" height="16.88" fill="white" transform="translate(45.1719 7.13086)"></rect></clipPath><clipPath id="clip9_1674_3204"><rect width="16.88" height="16.88" fill="white" transform="translate(67.6484 7.13086)"></rect></clipPath><clipPath id="clip10_1674_3204"><rect width="16.88" height="16.88" fill="white" transform="translate(67.6484 7.13086)"></rect></clipPath><clipPath id="clip11_1674_3204"><rect width="16.88" height="16.88" fill="white" transform="translate(67.6484 7.13086)"></rect></clipPath><clipPath id="clip12_1674_3204"><rect width="16.88" height="16.88" fill="white" transform="translate(90.1406 7.13086)"></rect></clipPath><clipPath id="clip13_1674_3204"><rect width="16.88" height="16.88" fill="white" transform="translate(90.1406 7.13086)"></rect></clipPath><clipPath id="clip14_1674_3204"><rect width="16.88" height="16.88" fill="white" transform="translate(90.1406 7.13086)"></rect></clipPath></defs></svg>