<svg width="501" height="1415" viewBox="0 0 501 1415" fill="none" xmlns="http://www.w3.org/2000/svg">
<path d="M161.434 1414.18L225.284 1271.1L103.788 1216.25L39.9219 1359.34L109.8 1361.99L161.434 1414.18Z" fill="url(#paint0_linear_1875_3156)"/>
<path d="M114.357 1351.65L55.8594 1349.44L109.084 1230.17L211.45 1276.37L158.113 1395.89L114.357 1351.65Z" stroke="url(#paint1_linear_1875_3156)" stroke-width="0.422" stroke-miterlimit="10"/>
<path opacity="0.63" d="M161.434 1414.18L225.284 1271.1L103.788 1216.25L39.9219 1359.34L109.8 1361.99L161.434 1414.18Z" fill="url(#paint2_linear_1875_3156)"/>
<path d="M339.581 1412L275.715 1268.92L397.227 1214.05L461.093 1357.14L391.214 1359.8L339.581 1412Z" fill="url(#paint3_linear_1875_3156)"/>
<path d="M289.566 1274.17L391.933 1227.97L445.157 1347.23L386.66 1349.47L342.904 1393.69L289.566 1274.17Z" stroke="url(#paint4_linear_1875_3156)" stroke-width="0.422" stroke-miterlimit="10"/>
<path opacity="0.63" d="M339.581 1412L275.715 1268.92L397.227 1214.05L461.093 1357.14L391.214 1359.8L339.581 1412Z" fill="url(#paint5_linear_1875_3156)"/>
<path d="M250.508 1330C388.579 1330 500.508 1218.07 500.508 1080C500.508 941.929 388.579 830 250.508 830C112.437 830 0.507812 941.929 0.507812 1080C0.507812 1218.07 112.437 1330 250.508 1330Z" fill="url(#paint6_linear_1875_3156)"/>
<path d="M481.757 1079.18C481.789 1088.66 481.259 1098.07 480.182 1107.26C478.96 1117.62 477.063 1127.77 474.491 1137.66C473.414 1141.92 472.208 1146.1 470.874 1150.26C470.874 1150.3 470.874 1150.3 470.874 1150.3C468.431 1157.98 465.585 1165.54 462.354 1172.87C455.362 1188.81 446.617 1203.79 436.377 1217.62C427.68 1229.35 417.907 1240.22 407.201 1250.06C366.209 1287.87 311.489 1311.03 251.336 1311.26C191.135 1311.47 136.174 1288.67 94.9096 1251.07C84.3001 1241.43 74.6068 1230.82 65.9262 1219.34C49.7386 1197.94 37.1839 1173.67 29.2267 1147.4C25.4973 1135.12 22.7485 1122.44 21.0767 1109.4C19.8871 1100.05 19.2602 1090.53 19.228 1080.84C18.7779 953.103 121.948 849.226 249.681 848.759C377.381 848.293 481.307 951.447 481.757 1079.18Z" fill="#292C2B"/>
<path d="M476.196 1132.39C446.425 1260.43 316.458 1338.04 189.609 1303.52C70.0749 1271 -3.21149 1148.29 24.8556 1027.63C54.6428 899.589 184.594 821.978 311.443 856.491C430.977 888.995 504.263 1011.71 476.196 1132.39Z" fill="url(#paint7_radial_1875_3156)"/>
<path d="M476.196 1132.39C446.425 1260.43 316.458 1338.04 189.609 1303.52C70.0749 1271 -3.21149 1148.29 24.8556 1027.63C54.6428 899.589 184.594 821.978 311.443 856.491C430.977 888.995 504.263 1011.71 476.196 1132.39Z" stroke="url(#paint8_radial_1875_3156)" stroke-width="0.422" stroke-miterlimit="10"/>
<path opacity="0.18" d="M250.507 1243.34C340.717 1243.34 413.846 1170.21 413.846 1080C413.846 989.79 340.717 916.66 250.507 916.66C160.297 916.66 87.168 989.79 87.168 1080C87.168 1170.21 160.297 1243.34 250.507 1243.34Z" fill="url(#paint9_radial_1875_3156)"/>
<path d="M250.511 1232.6C334.79 1232.6 403.112 1164.28 403.112 1080C403.112 995.72 334.79 927.398 250.511 927.398C166.232 927.398 97.9102 995.72 97.9102 1080C97.9102 1164.28 166.232 1232.6 250.511 1232.6Z" fill="url(#paint10_linear_1875_3156)"/>
<path d="M250.511 1232.6C334.79 1232.6 403.112 1164.28 403.112 1080C403.112 995.72 334.79 927.398 250.511 927.398C166.232 927.398 97.9102 995.72 97.9102 1080C97.9102 1164.28 166.232 1232.6 250.511 1232.6Z" fill="url(#paint11_radial_1875_3156)"/>
<path d="M255.042 1212.83L245.06 1219.1L247.937 1207.67L238.887 1200.11L250.654 1199.31L255.042 1188.38L259.431 1199.31L271.182 1200.11L262.147 1207.67L265.025 1219.1L255.042 1212.83Z" fill="#2B2D2E"/>
<path d="M209.254 1206.17L200.637 1211.57L203.129 1201.72L195.316 1195.19L205.46 1194.5L209.254 1185.07L213.047 1194.5L223.191 1195.19L215.378 1201.72L217.87 1211.57L209.254 1206.17Z" fill="#2B2D2E"/>
<path d="M300.792 1206.17L292.192 1211.57L294.668 1201.72L286.871 1195.19L297.014 1194.5L300.792 1185.07L304.586 1194.5L314.729 1195.19L306.933 1201.72L309.408 1211.57L300.792 1206.17Z" fill="#2B2D2E"/>
<path d="M255.042 975.497L245.06 981.766L247.937 970.337L238.887 962.782L250.654 961.978L255.042 951.047L259.431 961.978L271.182 962.782L262.147 970.337L265.025 981.766L255.042 975.497Z" fill="#2B2D2E"/>
<path d="M209.254 980.497L200.637 985.914L203.129 976.044L195.316 969.534L205.46 968.842L209.254 959.406L213.047 968.842L223.191 969.534L215.378 976.044L217.87 985.914L209.254 980.497Z" fill="#2B2D2E"/>
<path d="M300.792 980.497L292.192 985.914L294.668 976.044L286.871 969.534L297.014 968.842L300.792 959.406L304.586 968.842L314.729 969.534L306.933 976.044L309.408 985.914L300.792 980.497Z" fill="#2B2D2E"/>
<path d="M88.6439 1179.34C89.6245 1178.91 93.0485 1177.08 94.1255 1172.26C95.7491 1164.99 92.9038 1149.19 92.9038 1149.19C92.9038 1149.19 87.6955 1154.64 85.0592 1161C82.9855 1166 85.461 1173.08 87.1168 1176.85C82.1013 1168.57 77.9218 1160.44 74.4014 1152.5C75.4462 1152.24 79.031 1151.1 80.8796 1146.97C83.6928 1140.7 83.5802 1125.91 83.5802 1125.91C83.5802 1125.91 77.5682 1130.2 73.9352 1135.62C71.1703 1139.74 72.2312 1146.08 73.1957 1149.73C69.8521 1141.91 67.1676 1134.25 65.0457 1126.88C66.2513 1126.75 69.7878 1126.07 72.1991 1122.62C75.9767 1117.21 78.2112 1103.34 78.2112 1103.34C78.2112 1103.34 71.5882 1106.67 67.1354 1111.28C63.9847 1114.55 63.8079 1119.93 64.1133 1123.45C62.1521 1116.07 60.7214 1108.95 59.7409 1102.17C61.2841 1102.09 64.4348 1101.59 67.0229 1098.94C71.6204 1094.24 75.9928 1081.16 75.9928 1081.16C75.9928 1081.16 68.8715 1083.62 63.7114 1087.59C60.7214 1089.89 59.5158 1093.73 59.0496 1096.88C58.2941 1090.24 57.9405 1083.95 57.9083 1078.07C59.5158 1078.12 62.6183 1077.88 65.5118 1075.64C70.8166 1071.54 77.2306 1059.15 77.2306 1059.15C77.2306 1059.15 69.7235 1060.79 63.9525 1064.2C60.7375 1066.1 58.9532 1069.54 57.9565 1072.49C58.0208 1070 58.1334 1067.57 58.278 1065.24C58.5352 1061.39 58.9371 1057.72 59.4033 1054.17C60.9304 1054.39 64.2258 1054.54 67.6177 1052.51C73.5815 1048.96 82.0852 1037.16 82.0852 1037.16C82.0852 1037.16 74.2888 1037.95 67.9392 1040.81C63.9525 1042.61 61.4609 1046.56 60.0624 1049.68C61.2519 1042.24 62.7791 1035.6 64.4026 1029.88C65.1903 1030.15 69.0484 1031.31 73.6137 1029.24C80.2206 1026.25 90.9426 1015.07 90.9426 1015.07C90.9426 1015.07 82.9372 1014.85 76.025 1017.1C69.8843 1019.11 66.0584 1025.96 64.7402 1028.67C67.7945 1018.24 70.9774 1011.09 72.4241 1008.11C74.1442 1007.23 77.4074 1005.19 80.1402 1001.28C85.1556 994.143 90.8623 976.686 90.8623 976.686C90.8623 976.686 80.1402 985.881 74.4174 993.098C69.2413 999.641 70.3665 1005.8 70.9774 1007.9C69.4502 1011.1 66.4442 1018 63.5667 1027.79C64.2258 1024.86 65.4475 1017.42 62.4415 1012.32C59.0175 1006.54 53.6805 1001.3 53.6805 1001.3C53.6805 1001.3 52.1213 1018.45 55.6578 1024.35C58.3102 1028.77 62.8916 1029.04 63.197 1029.06C61.4448 1035.17 59.773 1042.34 58.5352 1050.42C58.487 1047 57.8762 1041.68 54.8219 1038.09C50.4977 1033.01 44.4052 1028.7 44.4052 1028.7C44.4052 1028.7 45.7234 1044.7 50.1601 1049.97C53.0858 1053.44 56.9438 1053.75 58.053 1053.77C57.5707 1057.38 57.1688 1061.13 56.8956 1065.07C56.6705 1068.31 56.5419 1071.74 56.5098 1075.32C56.0115 1072.03 54.629 1066.37 50.787 1062.93C45.7234 1058.4 39.004 1054.73 39.004 1054.73C39.004 1054.73 42.862 1070.03 48.0703 1074.87C51.5426 1078.1 55.4649 1078.02 56.4937 1077.94C56.5419 1085.37 57.0724 1093.44 58.2941 1102.01C57.9726 1100.5 55.8989 1091.86 50.0958 1087.67C44.3891 1083.55 37.1875 1080.37 37.1875 1080.37C37.1875 1080.37 43.3925 1095.42 49.276 1099.92C53.7931 1103.37 58.2298 1102.28 58.3262 1102.26C59.3872 1109.63 60.9465 1117.36 63.1649 1125.41C61.8306 1122.29 58.5995 1115.93 53.4234 1112.83C47.1541 1109.08 39.5666 1106.35 39.5666 1106.35C39.5666 1106.35 48.0382 1121.49 54.5647 1125.65C59.0336 1128.51 62.8755 1127.53 63.6953 1127.26C65.9458 1135.09 68.8072 1143.21 72.4241 1151.53C70.7041 1148.53 66.3156 1141.7 60.4642 1138.84C53.6645 1135.51 45.7555 1133.29 45.7555 1133.29C45.7555 1133.29 56.5741 1148.74 63.7275 1152.47C68.759 1155.09 72.4241 1153.43 73.0832 1153.08C76.7805 1161.42 81.2654 1169.97 86.6023 1178.69C84.5769 1175.92 78.6291 1168.46 71.974 1166C64.6116 1163.27 56.3972 1161.74 56.3972 1161.74C56.3972 1161.74 69.82 1177.48 77.6968 1180.57C83.5159 1182.85 86.956 1180.07 87.2936 1179.79C91.8589 1187.14 97.019 1194.58 102.903 1202.07L103.996 1201.21C98.2086 1193.86 93.1288 1186.55 88.6439 1179.34Z" fill="url(#paint12_linear_1875_3156)"/>
<path d="M410.551 1179.34C409.57 1178.91 406.146 1177.08 405.069 1172.26C403.445 1164.99 406.291 1149.19 406.291 1149.19C406.291 1149.19 411.499 1154.64 414.151 1161C416.225 1166 413.749 1173.08 412.094 1176.85C417.109 1168.57 421.289 1160.44 424.809 1152.5C423.764 1152.24 420.179 1151.1 418.331 1146.97C415.518 1140.7 415.63 1125.91 415.63 1125.91C415.63 1125.91 421.642 1130.2 425.275 1135.62C428.04 1139.74 426.979 1146.08 426.015 1149.73C429.358 1141.91 432.043 1134.25 434.165 1126.88C432.959 1126.75 429.423 1126.07 427.011 1122.62C423.234 1117.21 420.999 1103.34 420.999 1103.34C420.999 1103.34 427.622 1106.67 432.075 1111.28C435.226 1114.55 435.403 1119.93 435.097 1123.45C437.058 1116.07 438.489 1108.95 439.47 1102.17C437.926 1102.09 434.776 1101.59 432.188 1098.94C427.59 1094.24 423.218 1081.16 423.218 1081.16C423.218 1081.16 430.339 1083.62 435.499 1087.59C438.489 1089.89 439.695 1093.73 440.161 1096.88C440.916 1090.24 441.27 1083.95 441.302 1078.07C439.695 1078.12 436.592 1077.88 433.699 1075.64C428.394 1071.54 421.98 1059.15 421.98 1059.15C421.98 1059.15 429.487 1060.79 435.258 1064.2C438.473 1066.1 440.257 1069.54 441.254 1072.49C441.19 1070 441.077 1067.57 440.932 1065.24C440.675 1061.39 440.273 1057.72 439.807 1054.17C438.28 1054.39 434.985 1054.54 431.593 1052.51C425.629 1048.96 417.125 1037.16 417.125 1037.16C417.125 1037.16 424.922 1037.95 431.271 1040.81C435.258 1042.61 437.75 1046.56 439.148 1049.68C437.959 1042.24 436.431 1035.6 434.808 1029.88C434.02 1030.15 430.162 1031.31 425.597 1029.24C418.99 1026.25 408.268 1015.07 408.268 1015.07C408.268 1015.07 416.273 1014.85 423.186 1017.1C429.326 1019.11 433.152 1025.96 434.47 1028.67C431.416 1018.24 428.233 1011.09 426.786 1008.11C425.066 1007.23 421.803 1005.19 419.07 1001.28C414.055 994.143 408.348 976.686 408.348 976.686C408.348 976.686 419.07 985.881 424.793 993.098C429.969 999.641 428.844 1005.8 428.233 1007.9C429.76 1011.1 432.766 1018 435.644 1027.79C434.985 1024.86 433.763 1017.42 436.769 1012.32C440.193 1006.54 445.53 1001.3 445.53 1001.3C445.53 1001.3 447.089 1018.45 443.553 1024.35C440.9 1028.77 436.319 1029.04 436.013 1029.06C437.766 1035.17 439.437 1042.34 440.675 1050.42C440.723 1047 441.334 1041.68 444.389 1038.09C448.713 1033.01 454.805 1028.7 454.805 1028.7C454.805 1028.7 453.487 1044.7 449.05 1049.97C446.125 1053.44 442.267 1053.75 441.158 1053.77C441.64 1057.38 442.042 1061.13 442.315 1065.07C442.54 1068.31 442.669 1071.74 442.701 1075.32C443.199 1072.03 444.581 1066.37 448.423 1062.93C453.487 1058.4 460.207 1054.73 460.207 1054.73C460.207 1054.73 456.348 1070.03 451.14 1074.87C447.668 1078.1 443.746 1078.02 442.717 1077.94C442.669 1085.37 442.138 1093.44 440.916 1102.01C441.238 1100.5 443.312 1091.86 449.115 1087.67C454.821 1083.55 462.023 1080.37 462.023 1080.37C462.023 1080.37 455.818 1095.42 449.935 1099.92C445.417 1103.37 440.981 1102.28 440.884 1102.26C439.823 1109.63 438.264 1117.36 436.046 1125.41C437.38 1122.29 440.611 1115.93 445.787 1112.83C452.056 1109.08 459.644 1106.35 459.644 1106.35C459.644 1106.35 451.172 1121.49 444.646 1125.65C440.177 1128.51 436.335 1127.53 435.515 1127.26C433.265 1135.09 430.403 1143.21 426.786 1151.53C428.506 1148.53 432.895 1141.7 438.746 1138.84C445.546 1135.51 453.455 1133.29 453.455 1133.29C453.455 1133.29 442.636 1148.74 435.483 1152.47C430.451 1155.09 426.786 1153.43 426.127 1153.08C422.43 1161.42 417.945 1169.97 412.608 1178.69C414.634 1175.92 420.581 1168.46 427.236 1166C434.599 1163.27 442.813 1161.74 442.813 1161.74C442.813 1161.74 429.391 1177.48 421.514 1180.57C415.695 1182.85 412.254 1180.07 411.917 1179.79C407.352 1187.14 402.191 1194.58 396.308 1202.07L395.215 1201.21C400.986 1193.86 406.066 1186.55 410.551 1179.34Z" fill="url(#paint13_linear_1875_3156)"/>
<path d="M231.212 1106L278.378 1012.7V1011.87H224.003V1000.55H291.56V1012.49L244.599 1106H231.212Z" fill="#393939"/>
<path d="M162.45 931.193C160.665 932.27 158.768 932.913 156.759 933.106C154.75 933.299 152.789 933.106 150.827 932.511C148.882 931.916 147.082 930.984 145.426 929.714C143.77 928.444 142.388 926.885 141.263 925.02C140.137 923.155 139.414 921.21 139.076 919.185C138.739 917.159 138.771 915.166 139.157 913.189C139.543 911.211 140.314 909.395 141.456 907.723C142.597 906.067 144.092 904.669 145.957 903.544C148.529 901.984 151.036 901.213 153.464 901.229C155.891 901.245 158.093 901.872 160.054 903.126L158.19 907.482C156.582 906.437 154.894 905.939 153.142 905.987C151.39 906.035 149.718 906.534 148.159 907.482C146.889 908.254 145.876 909.218 145.169 910.392C144.446 911.565 143.995 912.835 143.803 914.217C143.61 915.6 143.69 916.998 144.012 918.429C144.349 919.844 144.912 921.21 145.683 922.512C146.519 923.895 147.516 925.052 148.673 925.984C149.831 926.917 151.085 927.608 152.419 928.026C153.753 928.46 155.119 928.605 156.502 928.46C157.884 928.331 159.203 927.881 160.44 927.126C161.919 926.226 163.109 925.004 163.993 923.445C164.877 921.885 165.456 919.988 165.713 917.786L168.349 922.142C167.61 926.258 165.633 929.264 162.45 931.193ZM163.88 915.664L158.174 919.104L156.261 915.921L165.568 910.311L173.863 924.055L170.262 926.226L163.88 915.664Z" fill="white"/>
<path d="M176.416 888.899L180.853 887.26L203.454 912.723L198.503 914.555L192.588 907.547L180.692 911.967L180.772 921.146L175.789 922.995L176.416 888.899ZM190.064 904.524L180.547 893.224L180.676 908.013L190.064 904.524Z" fill="white"/>
<path d="M207.055 912.082L202.008 880.752L215.639 878.549C217.054 878.324 218.388 878.405 219.658 878.807C220.928 879.208 222.086 879.819 223.098 880.655C224.111 881.491 224.979 882.472 225.654 883.597C226.329 884.722 226.78 885.928 226.972 887.182C227.197 888.564 227.165 889.931 226.86 891.281C226.571 892.631 226.024 893.837 225.252 894.898C224.481 895.959 223.5 896.795 222.327 897.405L231.618 908.128L226.056 909.028L217.504 899.222L210.222 900.395L211.974 911.294L207.055 912.082ZM209.531 896.023L218.179 894.624C219.096 894.48 219.851 894.078 220.478 893.435C221.105 892.792 221.539 891.988 221.812 891.024C222.086 890.059 222.134 889.046 221.957 887.985C221.78 886.892 221.394 885.96 220.784 885.172C220.173 884.385 219.449 883.774 218.613 883.372C217.777 882.97 216.926 882.825 216.041 882.97L207.65 884.32L209.531 896.023Z" fill="white"/>
<path d="M245.93 876.699L250.672 876.812L262.279 908.833L257.006 908.705L254.112 900.008L241.429 899.719L238.118 908.271L232.797 908.142L245.93 876.699ZM252.843 896.263L248.165 882.245L242.828 896.021L252.843 896.263Z" fill="white"/>
<path d="M275.228 888.208L271.032 910.247L266.113 909.315L272.045 878.129L276.08 878.901L289.454 904.781L293.73 882.292L298.697 883.241L292.782 914.378L288.474 913.558L275.228 888.208Z" fill="white"/>
<path d="M330.705 898.771L320.787 895.17L311.479 920.842L306.737 919.122L316.045 893.45L306.078 889.833L307.589 885.67L332.216 894.608L330.705 898.771Z" fill="white"/>
<path d="M325.379 926.757L339.332 898.256L343.833 900.458L329.88 928.959L325.379 926.757Z" fill="white"/>
<path d="M361.434 910.377L365.421 912.949L358.621 946.321L354.184 943.46L356.242 934.522L345.568 927.658L338.27 933.22L333.801 930.342L361.434 910.377ZM357.126 930.68L360.453 916.293L348.702 925.263L357.126 930.68Z" fill="white"/>
<path d="M162.45 931.193C160.665 932.27 158.768 932.913 156.759 933.106C154.75 933.299 152.789 933.106 150.827 932.511C148.882 931.916 147.082 930.984 145.426 929.714C143.77 928.444 142.388 926.885 141.263 925.02C140.137 923.155 139.414 921.21 139.076 919.185C138.739 917.159 138.771 915.166 139.157 913.189C139.543 911.211 140.314 909.395 141.456 907.723C142.597 906.067 144.092 904.669 145.957 903.544C148.529 901.984 151.036 901.213 153.464 901.229C155.891 901.245 158.093 901.872 160.054 903.126L158.19 907.482C156.582 906.437 154.894 905.939 153.142 905.987C151.39 906.035 149.718 906.534 148.159 907.482C146.889 908.254 145.876 909.218 145.169 910.392C144.446 911.565 143.995 912.835 143.803 914.217C143.61 915.6 143.69 916.998 144.012 918.429C144.349 919.844 144.912 921.21 145.683 922.512C146.519 923.895 147.516 925.052 148.673 925.984C149.831 926.917 151.085 927.608 152.419 928.026C153.753 928.46 155.119 928.605 156.502 928.46C157.884 928.331 159.203 927.881 160.44 927.126C161.919 926.226 163.109 925.004 163.993 923.445C164.877 921.885 165.456 919.988 165.713 917.786L168.349 922.142C167.61 926.258 165.633 929.264 162.45 931.193ZM163.88 915.664L158.174 919.104L156.261 915.921L165.568 910.311L173.863 924.055L170.262 926.226L163.88 915.664Z" fill="white"/>
<path d="M176.416 888.899L180.853 887.26L203.454 912.723L198.503 914.555L192.588 907.547L180.692 911.967L180.772 921.146L175.789 922.995L176.416 888.899ZM190.064 904.524L180.547 893.224L180.676 908.013L190.064 904.524Z" fill="white"/>
<path d="M207.055 912.082L202.008 880.752L215.639 878.549C217.054 878.324 218.388 878.405 219.658 878.807C220.928 879.208 222.086 879.819 223.098 880.655C224.111 881.491 224.979 882.472 225.654 883.597C226.329 884.722 226.78 885.928 226.972 887.182C227.197 888.564 227.165 889.931 226.86 891.281C226.571 892.631 226.024 893.837 225.252 894.898C224.481 895.959 223.5 896.795 222.327 897.405L231.618 908.128L226.056 909.028L217.504 899.222L210.222 900.395L211.974 911.294L207.055 912.082ZM209.531 896.023L218.179 894.624C219.096 894.48 219.851 894.078 220.478 893.435C221.105 892.792 221.539 891.988 221.812 891.024C222.086 890.059 222.134 889.046 221.957 887.985C221.78 886.892 221.394 885.96 220.784 885.172C220.173 884.385 219.449 883.774 218.613 883.372C217.777 882.97 216.926 882.825 216.041 882.97L207.65 884.32L209.531 896.023Z" fill="white"/>
<path d="M245.93 876.699L250.672 876.812L262.279 908.833L257.006 908.705L254.112 900.008L241.429 899.719L238.118 908.271L232.797 908.142L245.93 876.699ZM252.843 896.263L248.165 882.245L242.828 896.021L252.843 896.263Z" fill="white"/>
<path d="M275.228 888.208L271.032 910.247L266.113 909.315L272.045 878.129L276.08 878.901L289.454 904.781L293.73 882.292L298.697 883.241L292.782 914.378L288.474 913.558L275.228 888.208Z" fill="white"/>
<path d="M330.705 898.771L320.787 895.17L311.479 920.842L306.737 919.122L316.045 893.45L306.078 889.833L307.589 885.67L332.216 894.608L330.705 898.771Z" fill="white"/>
<path d="M325.379 926.757L339.332 898.256L343.833 900.458L329.88 928.959L325.379 926.757Z" fill="white"/>
<path d="M361.434 910.377L365.421 912.949L358.621 946.321L354.184 943.46L356.242 934.522L345.568 927.658L338.27 933.22L333.801 930.342L361.434 910.377ZM357.126 930.68L360.453 916.293L348.702 925.263L357.126 930.68Z" fill="white"/>
<path d="M149.639 1264.41C147.823 1263.4 146.328 1262.07 145.154 1260.43C143.997 1258.79 143.177 1256.97 142.743 1254.98C142.293 1252.98 142.213 1250.96 142.502 1248.9C142.775 1246.84 143.45 1244.86 144.511 1242.95C145.572 1241.04 146.906 1239.45 148.498 1238.16C150.089 1236.86 151.841 1235.89 153.754 1235.25C155.667 1234.61 157.629 1234.37 159.622 1234.54C161.631 1234.71 163.576 1235.32 165.473 1236.38C168.093 1237.84 170.006 1239.64 171.196 1241.75C172.385 1243.87 172.932 1246.09 172.82 1248.42L168.11 1248.96C168.222 1247.05 167.82 1245.35 166.904 1243.84C165.988 1242.34 164.734 1241.14 163.142 1240.25C161.84 1239.53 160.506 1239.14 159.14 1239.09C157.773 1239.05 156.439 1239.29 155.137 1239.8C153.835 1240.32 152.661 1241.07 151.584 1242.07C150.523 1243.06 149.623 1244.22 148.868 1245.54C148.08 1246.94 147.566 1248.39 147.324 1249.85C147.083 1251.33 147.115 1252.74 147.405 1254.11C147.694 1255.47 148.241 1256.73 149.044 1257.87C149.848 1258.99 150.893 1259.93 152.163 1260.63C153.674 1261.47 155.33 1261.9 157.114 1261.89C158.915 1261.89 160.827 1261.45 162.885 1260.59L160.41 1265.04C156.487 1266.45 152.886 1266.23 149.639 1264.41ZM163.834 1257.97L158.014 1254.72L159.815 1251.49L169.299 1256.78L161.47 1270.79L157.805 1268.75L163.834 1257.97Z" fill="white"/>
<path d="M190.189 1248.18L194.642 1249.82L195.22 1283.86L190.269 1282.03L190.35 1272.87L178.438 1268.46L172.522 1275.47L167.539 1273.62L190.189 1248.18ZM190.382 1268.93L190.51 1254.16L180.978 1265.46L190.382 1268.93Z" fill="white"/>
<path d="M203.07 1285.84L209.388 1254.73L222.923 1257.48C224.322 1257.77 225.559 1258.32 226.604 1259.14C227.649 1259.96 228.517 1260.94 229.176 1262.08C229.835 1263.22 230.302 1264.44 230.527 1265.73C230.768 1267.03 230.752 1268.3 230.494 1269.56C230.221 1270.92 229.707 1272.19 228.951 1273.35C228.196 1274.51 227.279 1275.44 226.17 1276.16C225.061 1276.89 223.855 1277.32 222.553 1277.48L227.472 1290.79L221.959 1289.67L217.409 1277.48L210.176 1276.02L207.973 1286.84L203.07 1285.84ZM211.06 1271.68L219.644 1273.41C220.544 1273.59 221.412 1273.49 222.216 1273.11C223.019 1272.72 223.727 1272.13 224.306 1271.32C224.9 1270.52 225.302 1269.59 225.511 1268.53C225.736 1267.45 225.688 1266.42 225.399 1265.47C225.109 1264.52 224.643 1263.7 224 1263.03C223.357 1262.35 222.602 1261.92 221.734 1261.74L213.407 1260.06L211.06 1271.68Z" fill="white"/>
<path d="M246.557 1260.13L251.299 1260.22L263.13 1292.14L257.858 1292.06L254.9 1283.38L242.216 1283.19L238.969 1291.77L233.648 1291.69L246.557 1260.13ZM253.63 1279.65L248.855 1265.66L243.615 1279.49L253.63 1279.65Z" fill="white"/>
<path d="M273.013 1268.35L276.727 1290.48L271.792 1291.32L266.535 1260.02L270.586 1259.35L292.095 1278.99L288.317 1256.42L293.3 1255.59L298.541 1286.85L294.216 1287.58L273.013 1268.35Z" fill="white"/>
<path d="M322.946 1250.49L312.947 1253.83L321.595 1279.75L316.805 1281.35L308.156 1255.44L298.109 1258.8L296.711 1254.61L321.563 1246.29L322.946 1250.49Z" fill="white"/>
<path d="M338.211 1273.25L325.223 1244.29L329.788 1242.24L342.777 1271.21L338.211 1273.25Z" fill="white"/>
<path d="M344.148 1234.87L348.248 1232.49L374.884 1253.71L370.319 1256.36L363.294 1250.46L352.331 1256.84L353.986 1265.86L349.389 1268.54L344.148 1234.87ZM360.288 1247.92L348.971 1238.42L351.623 1252.95L360.288 1247.92Z" fill="white"/>
<path d="M149.639 1264.41C147.823 1263.4 146.328 1262.07 145.154 1260.43C143.997 1258.79 143.177 1256.97 142.743 1254.98C142.293 1252.98 142.213 1250.96 142.502 1248.9C142.775 1246.84 143.45 1244.86 144.511 1242.95C145.572 1241.04 146.906 1239.45 148.498 1238.16C150.089 1236.86 151.841 1235.89 153.754 1235.25C155.667 1234.61 157.629 1234.37 159.622 1234.54C161.631 1234.71 163.576 1235.32 165.473 1236.38C168.093 1237.84 170.006 1239.64 171.196 1241.75C172.385 1243.87 172.932 1246.09 172.82 1248.42L168.11 1248.96C168.222 1247.05 167.82 1245.35 166.904 1243.84C165.988 1242.34 164.734 1241.14 163.142 1240.25C161.84 1239.53 160.506 1239.14 159.14 1239.09C157.773 1239.05 156.439 1239.29 155.137 1239.8C153.835 1240.32 152.661 1241.07 151.584 1242.07C150.523 1243.06 149.623 1244.22 148.868 1245.54C148.08 1246.94 147.566 1248.39 147.324 1249.85C147.083 1251.33 147.115 1252.74 147.405 1254.11C147.694 1255.47 148.241 1256.73 149.044 1257.87C149.848 1258.99 150.893 1259.93 152.163 1260.63C153.674 1261.47 155.33 1261.9 157.114 1261.89C158.915 1261.89 160.827 1261.45 162.885 1260.59L160.41 1265.04C156.487 1266.45 152.886 1266.23 149.639 1264.41ZM163.834 1257.97L158.014 1254.72L159.815 1251.49L169.299 1256.78L161.47 1270.79L157.805 1268.75L163.834 1257.97Z" fill="white"/>
<path d="M190.189 1248.18L194.642 1249.82L195.22 1283.86L190.269 1282.03L190.35 1272.87L178.438 1268.46L172.522 1275.47L167.539 1273.62L190.189 1248.18ZM190.382 1268.93L190.51 1254.16L180.978 1265.46L190.382 1268.93Z" fill="white"/>
<path d="M203.07 1285.84L209.388 1254.73L222.923 1257.48C224.322 1257.77 225.559 1258.32 226.604 1259.14C227.649 1259.96 228.517 1260.94 229.176 1262.08C229.835 1263.22 230.302 1264.44 230.527 1265.73C230.768 1267.03 230.752 1268.3 230.494 1269.56C230.221 1270.92 229.707 1272.19 228.951 1273.35C228.196 1274.51 227.279 1275.44 226.17 1276.16C225.061 1276.89 223.855 1277.32 222.553 1277.48L227.472 1290.79L221.959 1289.67L217.409 1277.48L210.176 1276.02L207.973 1286.84L203.07 1285.84ZM211.06 1271.68L219.644 1273.41C220.544 1273.59 221.412 1273.49 222.216 1273.11C223.019 1272.72 223.727 1272.13 224.306 1271.32C224.9 1270.52 225.302 1269.59 225.511 1268.53C225.736 1267.45 225.688 1266.42 225.399 1265.47C225.109 1264.52 224.643 1263.7 224 1263.03C223.357 1262.35 222.602 1261.92 221.734 1261.74L213.407 1260.06L211.06 1271.68Z" fill="white"/>
<path d="M246.557 1260.13L251.299 1260.22L263.13 1292.14L257.858 1292.06L254.9 1283.38L242.216 1283.19L238.969 1291.77L233.648 1291.69L246.557 1260.13ZM253.63 1279.65L248.855 1265.66L243.615 1279.49L253.63 1279.65Z" fill="white"/>
<path d="M273.013 1268.35L276.727 1290.48L271.792 1291.32L266.535 1260.02L270.586 1259.35L292.095 1278.99L288.317 1256.42L293.3 1255.59L298.541 1286.85L294.216 1287.58L273.013 1268.35Z" fill="white"/>
<path d="M322.946 1250.49L312.947 1253.83L321.595 1279.75L316.805 1281.35L308.156 1255.44L298.109 1258.8L296.711 1254.61L321.563 1246.29L322.946 1250.49Z" fill="white"/>
<path d="M338.211 1273.25L325.223 1244.29L329.788 1242.24L342.777 1271.21L338.211 1273.25Z" fill="white"/>
<path d="M344.148 1234.87L348.248 1232.49L374.884 1253.71L370.319 1256.36L363.294 1250.46L352.331 1256.84L353.986 1265.86L349.389 1268.54L344.148 1234.87ZM360.288 1247.92L348.971 1238.42L351.623 1252.95L360.288 1247.92Z" fill="white"/>
<path opacity="0.7" d="M192.945 1172H176.113V1117.45H193.691C198.982 1117.45 203.51 1118.55 207.274 1120.73C211.038 1122.9 213.924 1126.01 215.93 1130.08C217.936 1134.13 218.94 1138.97 218.94 1144.62C218.94 1150.3 217.928 1155.19 215.903 1159.3C213.879 1163.38 210.932 1166.52 207.061 1168.72C203.19 1170.91 198.485 1172 192.945 1172ZM182.718 1166.14H192.519C197.029 1166.14 200.767 1165.27 203.732 1163.53C206.697 1161.79 208.908 1159.31 210.364 1156.1C211.82 1152.89 212.548 1149.06 212.548 1144.62C212.548 1140.22 211.828 1136.43 210.39 1133.25C208.952 1130.05 206.804 1127.6 203.945 1125.9C201.086 1124.18 197.526 1123.31 193.265 1123.31H182.718V1166.14ZM236.624 1117.45V1172H230.019V1117.45H236.624ZM252.105 1172H245.18L265.209 1117.45H272.027L292.055 1172H285.131L268.831 1126.08H268.405L252.105 1172ZM254.662 1150.69H282.574V1156.55H254.662V1150.69ZM330.381 1131.09C330.061 1128.39 328.765 1126.3 326.492 1124.81C324.22 1123.31 321.432 1122.57 318.13 1122.57C315.715 1122.57 313.602 1122.96 311.791 1123.74C309.997 1124.52 308.595 1125.6 307.583 1126.96C306.588 1128.33 306.091 1129.88 306.091 1131.62C306.091 1133.08 306.437 1134.33 307.13 1135.38C307.84 1136.41 308.746 1137.27 309.847 1137.96C310.947 1138.64 312.101 1139.2 313.309 1139.64C314.516 1140.07 315.626 1140.41 316.638 1140.68L322.178 1142.17C323.598 1142.54 325.179 1143.06 326.919 1143.72C328.676 1144.37 330.354 1145.27 331.952 1146.41C333.568 1147.52 334.9 1148.96 335.947 1150.72C336.995 1152.48 337.519 1154.63 337.519 1157.19C337.519 1160.14 336.746 1162.8 335.202 1165.18C333.675 1167.56 331.437 1169.45 328.49 1170.85C325.56 1172.26 322 1172.96 317.81 1172.96C313.904 1172.96 310.521 1172.33 307.663 1171.07C304.822 1169.81 302.584 1168.05 300.951 1165.79C299.335 1163.54 298.421 1160.92 298.208 1157.94H305.026C305.203 1160 305.896 1161.7 307.103 1163.05C308.328 1164.38 309.873 1165.38 311.737 1166.03C313.62 1166.67 315.644 1166.99 317.81 1166.99C320.331 1166.99 322.595 1166.58 324.601 1165.77C326.608 1164.93 328.197 1163.78 329.369 1162.31C330.541 1160.81 331.127 1159.07 331.127 1157.09C331.127 1155.27 330.621 1153.8 329.609 1152.66C328.597 1151.53 327.265 1150.6 325.614 1149.89C323.962 1149.18 322.178 1148.56 320.26 1148.03L313.549 1146.11C309.287 1144.89 305.914 1143.14 303.428 1140.87C300.942 1138.59 299.699 1135.62 299.699 1131.94C299.699 1128.89 300.525 1126.23 302.176 1123.95C303.845 1121.66 306.082 1119.89 308.888 1118.63C311.711 1117.35 314.862 1116.71 318.343 1116.71C321.858 1116.71 324.983 1117.34 327.718 1118.6C330.452 1119.84 332.618 1121.55 334.216 1123.71C335.832 1125.88 336.684 1128.34 336.773 1131.09H330.381Z" fill="#393939"/>
<path d="M250 0V830.5" stroke="white" stroke-width="5"/>
<defs>
<linearGradient id="paint0_linear_1875_3156" x1="146.693" y1="1277.66" x2="112.862" y2="1367.88" gradientUnits="userSpaceOnUse">
<stop stop-color="#8A0000"/>
<stop offset="1" stop-color="#ED1C24"/>
</linearGradient>
<linearGradient id="paint1_linear_1875_3156" x1="158.109" y1="1247.64" x2="108.941" y2="1378.75" gradientUnits="userSpaceOnUse">
<stop offset="0.005618" stop-color="#FBC01B"/>
<stop offset="0.2528" stop-color="#FFF5A8"/>
<stop offset="0.3151" stop-color="#F8E997"/>
<stop offset="0.4388" stop-color="#E7CA6A"/>
<stop offset="0.6107" stop-color="#CA9922"/>
<stop offset="0.6877" stop-color="#BD8100"/>
<stop offset="1" stop-color="#FFF5A8"/>
</linearGradient>
<linearGradient id="paint2_linear_1875_3156" x1="115.065" y1="1366.87" x2="136.488" y2="1303.8" gradientUnits="userSpaceOnUse">
<stop stop-color="white" stop-opacity="0"/>
<stop offset="1" stop-color="#582D19"/>
</linearGradient>
<linearGradient id="paint3_linear_1875_3156" x1="354.319" y1="1275.46" x2="388.15" y2="1365.68" gradientUnits="userSpaceOnUse">
<stop stop-color="#8A0000"/>
<stop offset="0.3413" stop-color="#AC0A0C"/>
<stop offset="1" stop-color="#ED1C24"/>
</linearGradient>
<linearGradient id="paint4_linear_1875_3156" x1="342.905" y1="1245.45" x2="392.073" y2="1376.56" gradientUnits="userSpaceOnUse">
<stop offset="0.005618" stop-color="#FBC01B"/>
<stop offset="0.2528" stop-color="#FFF5A8"/>
<stop offset="0.3151" stop-color="#F8E997"/>
<stop offset="0.4388" stop-color="#E7CA6A"/>
<stop offset="0.6107" stop-color="#CA9922"/>
<stop offset="0.6877" stop-color="#BD8100"/>
<stop offset="1" stop-color="#FFF5A8"/>
</linearGradient>
<linearGradient id="paint5_linear_1875_3156" x1="385.989" y1="1349.12" x2="363.376" y2="1302.7" gradientUnits="userSpaceOnUse">
<stop stop-color="white" stop-opacity="0"/>
<stop offset="1" stop-color="#582D19"/>
</linearGradient>
<linearGradient id="paint6_linear_1875_3156" x1="0.450585" y1="1080" x2="500.565" y2="1080" gradientUnits="userSpaceOnUse">
<stop stop-color="#FFF5A8"/>
<stop offset="0.3123" stop-color="#BD8100"/>
<stop offset="0.7592" stop-color="#E0BE58"/>
<stop offset="1" stop-color="#F1DC83"/>
</linearGradient>
<radialGradient id="paint7_radial_1875_3156" cx="0" cy="0" r="1" gradientUnits="userSpaceOnUse" gradientTransform="translate(250.518 1080) rotate(14.3586) scale(231.673 231.673)">
<stop offset="0.9132" stop-color="white" stop-opacity="0"/>
<stop offset="1" stop-color="#571600"/>
</radialGradient>
<radialGradient id="paint8_radial_1875_3156" cx="0" cy="0" r="1" gradientUnits="userSpaceOnUse" gradientTransform="translate(250.518 1080) scale(232.497 232.497)">
<stop stop-color="#FFF5A8"/>
<stop offset="0.7228" stop-color="#FFF5A8"/>
</radialGradient>
<radialGradient id="paint9_radial_1875_3156" cx="0" cy="0" r="1" gradientUnits="userSpaceOnUse" gradientTransform="translate(250.507 1080) scale(163.337)">
<stop stop-color="white" stop-opacity="0"/>
<stop offset="1" stop-color="#571600"/>
</radialGradient>
<linearGradient id="paint10_linear_1875_3156" x1="439.065" y1="964.817" x2="53.5786" y2="1200.31" gradientUnits="userSpaceOnUse">
<stop offset="0.005618" stop-color="#FBC01B"/>
<stop offset="0.2528" stop-color="#FFF5A8"/>
<stop offset="0.3151" stop-color="#F8E997"/>
<stop offset="0.4388" stop-color="#E7CA6A"/>
<stop offset="0.6107" stop-color="#CA9922"/>
<stop offset="0.6877" stop-color="#BD8100"/>
<stop offset="1" stop-color="#FFF5A8"/>
</linearGradient>
<radialGradient id="paint11_radial_1875_3156" cx="0" cy="0" r="1" gradientUnits="userSpaceOnUse" gradientTransform="translate(250.511 1080) scale(154.113)">
<stop offset="0.8942" stop-color="white" stop-opacity="0"/>
<stop offset="0.9104" stop-color="#DBD4C6" stop-opacity="0.1531"/>
<stop offset="0.9265" stop-color="#BCAF95" stop-opacity="0.3059"/>
<stop offset="0.9424" stop-color="#A2916C" stop-opacity="0.4558"/>
<stop offset="0.9579" stop-color="#8E794D" stop-opacity="0.6021"/>
<stop offset="0.9729" stop-color="#806937" stop-opacity="0.7437"/>
<stop offset="0.9872" stop-color="#785E2A" stop-opacity="0.8787"/>
<stop offset="1" stop-color="#755B25"/>
</radialGradient>
<linearGradient id="paint12_linear_1875_3156" x1="147.433" y1="983.95" x2="25.2054" y2="1192.98" gradientUnits="userSpaceOnUse">
<stop offset="0.005618" stop-color="#FBC01B"/>
<stop offset="0.2528" stop-color="#FFF5A8"/>
<stop offset="0.3151" stop-color="#F8E997"/>
<stop offset="0.4388" stop-color="#E7CA6A"/>
<stop offset="0.6107" stop-color="#CA9922"/>
<stop offset="0.6877" stop-color="#BD8100"/>
<stop offset="1" stop-color="#FFF5A8"/>
</linearGradient>
<linearGradient id="paint13_linear_1875_3156" x1="351.768" y1="983.95" x2="473.996" y2="1192.98" gradientUnits="userSpaceOnUse">
<stop offset="0.005618" stop-color="#FBC01B"/>
<stop offset="0.2528" stop-color="#FFF5A8"/>
<stop offset="0.3151" stop-color="#F8E997"/>
<stop offset="0.4388" stop-color="#E7CA6A"/>
<stop offset="0.6107" stop-color="#CA9922"/>
<stop offset="0.6877" stop-color="#BD8100"/>
<stop offset="1" stop-color="#FFF5A8"/>
</linearGradient>
</defs>
</svg>
