<svg width="29" height="23" viewBox="0 0 29 23" fill="none" xmlns="http://www.w3.org/2000/svg">
<path d="M25.2859 5.8125C25.2859 6.08594 25.2859 6.30469 25.2859 6.57812C25.2859 14.1797 19.5438 22.875 8.98906 22.875C5.70781 22.875 2.7 21.9453 0.184376 20.3047C0.621876 20.3594 1.05938 20.4141 1.55156 20.4141C4.23125 20.4141 6.69219 19.4844 8.66094 17.9531C6.14531 17.8984 4.0125 16.2578 3.30156 13.9609C3.68438 14.0156 4.0125 14.0703 4.39531 14.0703C4.8875 14.0703 5.43438 13.9609 5.87188 13.8516C3.24688 13.3047 1.27813 11.0078 1.27813 8.21875V8.16406C2.04375 8.60156 2.97344 8.82031 3.90313 8.875C2.31719 7.83594 1.33281 6.08594 1.33281 4.11719C1.33281 3.02344 1.60625 2.03906 2.09844 1.21875C4.94219 4.66406 9.20781 6.96094 13.9656 7.23438C13.8563 6.79688 13.8016 6.35938 13.8016 5.92188C13.8016 2.75 16.3719 0.179688 19.5438 0.179688C21.1844 0.179688 22.6609 0.835938 23.7547 1.98438C25.0125 1.71094 26.2703 1.21875 27.3641 0.5625C26.9266 1.92969 26.0516 3.02344 24.8484 3.73438C25.9969 3.625 27.1453 3.29688 28.1297 2.85938C27.3641 4.00781 26.3797 4.99219 25.2859 5.8125Z" fill="white"/>
</svg>
