<svg width="31" height="21" viewBox="0 0 31 21" fill="none" xmlns="http://www.w3.org/2000/svg">
<path d="M29.4688 3.33594C30.125 5.63281 30.125 10.5547 30.125 10.5547C30.125 10.5547 30.125 15.4219 29.4688 17.7734C29.1406 19.0859 28.1016 20.0703 26.8438 20.3984C24.4922 21 15.1953 21 15.1953 21C15.1953 21 5.84375 21 3.49219 20.3984C2.23438 20.0703 1.19531 19.0859 0.867188 17.7734C0.210938 15.4219 0.210938 10.5547 0.210938 10.5547C0.210938 10.5547 0.210938 5.63281 0.867188 3.33594C1.19531 2.02344 2.23438 0.984375 3.49219 0.65625C5.84375 0 15.1953 0 15.1953 0C15.1953 0 24.4922 0 26.8438 0.65625C28.1016 0.984375 29.1406 2.02344 29.4688 3.33594ZM12.1328 14.9844L19.8984 10.5547L12.1328 6.125V14.9844Z" fill="white"/>
</svg>
